<svg xmlns="http://www.w3.org/2000/svg" width="920" height="780" viewBox="0 0 920 780">
<rect width="100%" height="100%" fill="#ffffff"/>
<text x="24.0" y="36.0" font-family="Arial, sans-serif" font-size="20" font-weight="700" fill="#1f2933">G-364 candidate conflict graph</text>
<text x="24.0" y="58.0" font-family="Arial, sans-serif" font-size="12" font-weight="400" fill="#1f2933">7 candidates, 16 conflicts</text>
<line x1="460.0" y1="115.0" x2="182.1" y2="463.4" stroke="#d0d7de" stroke-width="0.8" stroke-opacity="0.35"/>
<line x1="682.8" y1="222.3" x2="737.9" y2="463.4" stroke="#d0d7de" stroke-width="0.8" stroke-opacity="0.35"/>
<line x1="682.8" y1="222.3" x2="583.7" y2="656.8" stroke="#d0d7de" stroke-width="0.8" stroke-opacity="0.35"/>
<line x1="682.8" y1="222.3" x2="336.3" y2="656.8" stroke="#d0d7de" stroke-width="0.8" stroke-opacity="0.35"/>
<line x1="682.8" y1="222.3" x2="182.1" y2="463.4" stroke="#d0d7de" stroke-width="0.8" stroke-opacity="0.35"/>
<line x1="682.8" y1="222.3" x2="237.2" y2="222.3" stroke="#d0d7de" stroke-width="0.8" stroke-opacity="0.35"/>
<line x1="737.9" y1="463.4" x2="583.7" y2="656.8" stroke="#d0d7de" stroke-width="0.8" stroke-opacity="0.35"/>
<line x1="737.9" y1="463.4" x2="336.3" y2="656.8" stroke="#d0d7de" stroke-width="0.8" stroke-opacity="0.35"/>
<line x1="737.9" y1="463.4" x2="182.1" y2="463.4" stroke="#d0d7de" stroke-width="0.8" stroke-opacity="0.35"/>
<line x1="737.9" y1="463.4" x2="237.2" y2="222.3" stroke="#d0d7de" stroke-width="0.8" stroke-opacity="0.35"/>
<line x1="583.7" y1="656.8" x2="336.3" y2="656.8" stroke="#d0d7de" stroke-width="0.8" stroke-opacity="0.35"/>
<line x1="583.7" y1="656.8" x2="182.1" y2="463.4" stroke="#d0d7de" stroke-width="0.8" stroke-opacity="0.35"/>
<line x1="583.7" y1="656.8" x2="237.2" y2="222.3" stroke="#d0d7de" stroke-width="0.8" stroke-opacity="0.35"/>
<line x1="336.3" y1="656.8" x2="182.1" y2="463.4" stroke="#d0d7de" stroke-width="0.8" stroke-opacity="0.35"/>
<line x1="336.3" y1="656.8" x2="237.2" y2="222.3" stroke="#d0d7de" stroke-width="0.8" stroke-opacity="0.35"/>
<line x1="182.1" y1="463.4" x2="237.2" y2="222.3" stroke="#d0d7de" stroke-width="0.8" stroke-opacity="0.35"/>
<circle cx="460.0" cy="115.0" r="5.8" fill="#2f9e44" fill-opacity="0.85"/>
<circle cx="682.8" cy="222.3" r="5.8" fill="#2f9e44" fill-opacity="0.85"/>
<circle cx="737.9" cy="463.4" r="7.6" fill="#2f9e44" fill-opacity="0.85"/>
<circle cx="583.7" cy="656.8" r="9.4" fill="#2f9e44" fill-opacity="0.85"/>
<circle cx="336.3" cy="656.8" r="7.6" fill="#2f9e44" fill-opacity="0.85"/>
<circle cx="182.1" cy="463.4" r="9.4" fill="#2f9e44" fill-opacity="0.85"/>
<circle cx="237.2" cy="222.3" r="7.6" fill="#2f9e44" fill-opacity="0.85"/>
<text x="720.0" y="40.0" font-family="Arial, sans-serif" font-size="11" font-weight="400" fill="#1f2933">green=chain</text>
<text x="720.0" y="58.0" font-family="Arial, sans-serif" font-size="11" font-weight="400" fill="#1f2933">purple=cycle</text>
</svg>
