<svg xmlns="http://www.w3.org/2000/svg" width="900" height="760" viewBox="0 0 900 760">
<rect width="100%" height="100%" fill="#ffffff"/>
<defs><marker id="arrow" viewBox="0 0 10 10" refX="8" refY="5" markerWidth="5" markerHeight="5" orient="auto-start-reverse"><path d="M 0 0 L 10 5 L 0 10 z" fill="#6b7280"/></marker></defs>
<text x="24.0" y="36.0" font-family="Arial, sans-serif" font-size="20" font-weight="700" fill="#1f2933">G-398 compatibility graph</text>
<text x="24.0" y="58.0" font-family="Arial, sans-serif" font-size="12" font-weight="400" fill="#1f2933">22 vertices, 32 arcs</text>
<line x1="450.0" y1="115.0" x2="527.5" y2="126.1" stroke="#9aa5b1" stroke-width="1.0" stroke-opacity="0.55" marker-end="url(#arrow)"/>
<line x1="527.5" y1="126.1" x2="242.2" y2="570.1" stroke="#9aa5b1" stroke-width="1.0" stroke-opacity="0.55" marker-end="url(#arrow)"/>
<line x1="598.7" y1="158.7" x2="242.2" y2="570.1" stroke="#9aa5b1" stroke-width="1.0" stroke-opacity="0.55" marker-end="url(#arrow)"/>
<line x1="657.8" y1="209.9" x2="372.5" y2="653.9" stroke="#9aa5b1" stroke-width="1.0" stroke-opacity="0.55" marker-end="url(#arrow)"/>
<line x1="700.1" y1="275.8" x2="242.2" y2="570.1" stroke="#9aa5b1" stroke-width="1.0" stroke-opacity="0.55" marker-end="url(#arrow)"/>
<line x1="722.2" y1="429.1" x2="527.5" y2="126.1" stroke="#9aa5b1" stroke-width="1.0" stroke-opacity="0.55" marker-end="url(#arrow)"/>
<line x1="657.8" y1="570.1" x2="722.2" y2="429.1" stroke="#9aa5b1" stroke-width="1.0" stroke-opacity="0.55" marker-end="url(#arrow)"/>
<line x1="657.8" y1="570.1" x2="301.3" y2="621.3" stroke="#9aa5b1" stroke-width="1.0" stroke-opacity="0.55" marker-end="url(#arrow)"/>
<line x1="657.8" y1="570.1" x2="242.2" y2="570.1" stroke="#9aa5b1" stroke-width="1.0" stroke-opacity="0.55" marker-end="url(#arrow)"/>
<line x1="657.8" y1="570.1" x2="199.9" y2="504.2" stroke="#9aa5b1" stroke-width="1.0" stroke-opacity="0.55" marker-end="url(#arrow)"/>
<line x1="598.7" y1="621.3" x2="527.5" y2="126.1" stroke="#9aa5b1" stroke-width="1.0" stroke-opacity="0.55" marker-end="url(#arrow)"/>
<line x1="598.7" y1="621.3" x2="242.2" y2="570.1" stroke="#9aa5b1" stroke-width="1.0" stroke-opacity="0.55" marker-end="url(#arrow)"/>
<line x1="598.7" y1="621.3" x2="199.9" y2="504.2" stroke="#9aa5b1" stroke-width="1.0" stroke-opacity="0.55" marker-end="url(#arrow)"/>
<line x1="450.0" y1="665.0" x2="527.5" y2="126.1" stroke="#9aa5b1" stroke-width="1.0" stroke-opacity="0.55" marker-end="url(#arrow)"/>
<line x1="372.5" y1="653.9" x2="657.8" y2="570.1" stroke="#9aa5b1" stroke-width="1.0" stroke-opacity="0.55" marker-end="url(#arrow)"/>
<line x1="372.5" y1="653.9" x2="301.3" y2="621.3" stroke="#9aa5b1" stroke-width="1.0" stroke-opacity="0.55" marker-end="url(#arrow)"/>
<line x1="372.5" y1="653.9" x2="242.2" y2="570.1" stroke="#9aa5b1" stroke-width="1.0" stroke-opacity="0.55" marker-end="url(#arrow)"/>
<line x1="301.3" y1="621.3" x2="372.5" y2="653.9" stroke="#9aa5b1" stroke-width="1.0" stroke-opacity="0.55" marker-end="url(#arrow)"/>
<line x1="301.3" y1="621.3" x2="242.2" y2="570.1" stroke="#9aa5b1" stroke-width="1.0" stroke-opacity="0.55" marker-end="url(#arrow)"/>
<line x1="199.9" y1="504.2" x2="177.8" y2="350.9" stroke="#9aa5b1" stroke-width="1.0" stroke-opacity="0.55" marker-end="url(#arrow)"/>
<line x1="177.8" y1="429.1" x2="301.3" y2="621.3" stroke="#9aa5b1" stroke-width="1.0" stroke-opacity="0.55" marker-end="url(#arrow)"/>
<line x1="177.8" y1="429.1" x2="199.9" y2="504.2" stroke="#9aa5b1" stroke-width="1.0" stroke-opacity="0.55" marker-end="url(#arrow)"/>
<line x1="177.8" y1="350.9" x2="527.5" y2="126.1" stroke="#9aa5b1" stroke-width="1.0" stroke-opacity="0.55" marker-end="url(#arrow)"/>
<line x1="177.8" y1="350.9" x2="301.3" y2="621.3" stroke="#9aa5b1" stroke-width="1.0" stroke-opacity="0.55" marker-end="url(#arrow)"/>
<line x1="177.8" y1="350.9" x2="199.9" y2="504.2" stroke="#9aa5b1" stroke-width="1.0" stroke-opacity="0.55" marker-end="url(#arrow)"/>
<line x1="199.9" y1="275.8" x2="242.2" y2="570.1" stroke="#9aa5b1" stroke-width="1.0" stroke-opacity="0.55" marker-end="url(#arrow)"/>
<line x1="301.3" y1="158.7" x2="657.8" y2="570.1" stroke="#9aa5b1" stroke-width="1.0" stroke-opacity="0.55" marker-end="url(#arrow)"/>
<line x1="301.3" y1="158.7" x2="242.2" y2="570.1" stroke="#9aa5b1" stroke-width="1.0" stroke-opacity="0.55" marker-end="url(#arrow)"/>
<line x1="301.3" y1="158.7" x2="199.9" y2="504.2" stroke="#9aa5b1" stroke-width="1.0" stroke-opacity="0.55" marker-end="url(#arrow)"/>
<line x1="372.5" y1="126.1" x2="301.3" y2="621.3" stroke="#9aa5b1" stroke-width="1.0" stroke-opacity="0.55" marker-end="url(#arrow)"/>
<line x1="372.5" y1="126.1" x2="242.2" y2="570.1" stroke="#9aa5b1" stroke-width="1.0" stroke-opacity="0.55" marker-end="url(#arrow)"/>
<line x1="372.5" y1="126.1" x2="199.9" y2="504.2" stroke="#9aa5b1" stroke-width="1.0" stroke-opacity="0.55" marker-end="url(#arrow)"/>
<circle cx="450.0" cy="115.0" r="15" fill="#0b7285" stroke="#102a43" stroke-width="1"/>
<text x="443.0" y="119.0" font-family="Arial, sans-serif" font-size="10" font-weight="700" fill="#1f2933">0</text>
<circle cx="527.5" cy="126.1" r="15" fill="#0b7285" stroke="#102a43" stroke-width="1"/>
<text x="520.5" y="130.1" font-family="Arial, sans-serif" font-size="10" font-weight="700" fill="#1f2933">2</text>
<circle cx="598.7" cy="158.7" r="15" fill="#0b7285" stroke="#102a43" stroke-width="1"/>
<text x="591.7" y="162.7" font-family="Arial, sans-serif" font-size="10" font-weight="700" fill="#1f2933">3</text>
<circle cx="657.8" cy="209.9" r="15" fill="#0b7285" stroke="#102a43" stroke-width="1"/>
<text x="650.8" y="213.9" font-family="Arial, sans-serif" font-size="10" font-weight="700" fill="#1f2933">4</text>
<circle cx="700.1" cy="275.8" r="15" fill="#0b7285" stroke="#102a43" stroke-width="1"/>
<text x="693.1" y="279.8" font-family="Arial, sans-serif" font-size="10" font-weight="700" fill="#1f2933">5</text>
<circle cx="722.2" cy="350.9" r="15" fill="#0b7285" stroke="#102a43" stroke-width="1"/>
<text x="715.2" y="354.9" font-family="Arial, sans-serif" font-size="10" font-weight="700" fill="#1f2933">6</text>
<circle cx="722.2" cy="429.1" r="15" fill="#0b7285" stroke="#102a43" stroke-width="1"/>
<text x="715.2" y="433.1" font-family="Arial, sans-serif" font-size="10" font-weight="700" fill="#1f2933">7</text>
<circle cx="700.1" cy="504.2" r="15" fill="#0b7285" stroke="#102a43" stroke-width="1"/>
<text x="693.1" y="508.2" font-family="Arial, sans-serif" font-size="10" font-weight="700" fill="#1f2933">8</text>
<circle cx="657.8" cy="570.1" r="15" fill="#0b7285" stroke="#102a43" stroke-width="1"/>
<text x="650.8" y="574.1" font-family="Arial, sans-serif" font-size="10" font-weight="700" fill="#1f2933">9</text>
<circle cx="598.7" cy="621.3" r="15" fill="#0b7285" stroke="#102a43" stroke-width="1"/>
<text x="591.7" y="625.3" font-family="Arial, sans-serif" font-size="10" font-weight="700" fill="#1f2933">10</text>
<circle cx="527.5" cy="653.9" r="15" fill="#0b7285" stroke="#102a43" stroke-width="1"/>
<text x="520.5" y="657.9" font-family="Arial, sans-serif" font-size="10" font-weight="700" fill="#1f2933">11</text>
<circle cx="450.0" cy="665.0" r="15" fill="#0b7285" stroke="#102a43" stroke-width="1"/>
<text x="443.0" y="669.0" font-family="Arial, sans-serif" font-size="10" font-weight="700" fill="#1f2933">12</text>
<circle cx="372.5" cy="653.9" r="15" fill="#0b7285" stroke="#102a43" stroke-width="1"/>
<text x="365.5" y="657.9" font-family="Arial, sans-serif" font-size="10" font-weight="700" fill="#1f2933">13</text>
<circle cx="301.3" cy="621.3" r="15" fill="#0b7285" stroke="#102a43" stroke-width="1"/>
<text x="294.3" y="625.3" font-family="Arial, sans-serif" font-size="10" font-weight="700" fill="#1f2933">14</text>
<circle cx="242.2" cy="570.1" r="15" fill="#0b7285" stroke="#102a43" stroke-width="1"/>
<text x="235.2" y="574.1" font-family="Arial, sans-serif" font-size="10" font-weight="700" fill="#1f2933">15</text>
<circle cx="199.9" cy="504.2" r="15" fill="#0b7285" stroke="#102a43" stroke-width="1"/>
<text x="192.9" y="508.2" font-family="Arial, sans-serif" font-size="10" font-weight="700" fill="#1f2933">16</text>
<circle cx="177.8" cy="429.1" r="15" fill="#0b7285" stroke="#102a43" stroke-width="1"/>
<text x="170.8" y="433.1" font-family="Arial, sans-serif" font-size="10" font-weight="700" fill="#1f2933">17</text>
<circle cx="177.8" cy="350.9" r="15" fill="#0b7285" stroke="#102a43" stroke-width="1"/>
<text x="170.8" y="354.9" font-family="Arial, sans-serif" font-size="10" font-weight="700" fill="#1f2933">18</text>
<circle cx="199.9" cy="275.8" r="15" fill="#0b7285" stroke="#102a43" stroke-width="1"/>
<text x="192.9" y="279.8" font-family="Arial, sans-serif" font-size="10" font-weight="700" fill="#1f2933">19</text>
<circle cx="242.2" cy="209.9" r="15" fill="#0b7285" stroke="#102a43" stroke-width="1"/>
<text x="235.2" y="213.9" font-family="Arial, sans-serif" font-size="10" font-weight="700" fill="#1f2933">20</text>
<circle cx="301.3" cy="158.7" r="15" fill="#f59f00" stroke="#102a43" stroke-width="1"/>
<text x="294.3" y="162.7" font-family="Arial, sans-serif" font-size="10" font-weight="700" fill="#1f2933">21</text>
<circle cx="372.5" cy="126.1" r="15" fill="#f59f00" stroke="#102a43" stroke-width="1"/>
<text x="365.5" y="130.1" font-family="Arial, sans-serif" font-size="10" font-weight="700" fill="#1f2933">22</text>
</svg>
