<svg xmlns="http://www.w3.org/2000/svg" width="920" height="780" viewBox="0 0 920 780">
<rect width="100%" height="100%" fill="#ffffff"/>
<text x="24.0" y="36.0" font-family="Arial, sans-serif" font-size="20" font-weight="700" fill="#1f2933">G-79 candidate conflict graph</text>
<text x="24.0" y="58.0" font-family="Arial, sans-serif" font-size="12" font-weight="400" fill="#1f2933">27 candidates, 332 conflicts</text>
<line x1="460.0" y1="115.0" x2="525.7" y2="122.7" stroke="#d0d7de" stroke-width="0.8" stroke-opacity="0.35"/>
<line x1="460.0" y1="115.0" x2="587.9" y2="145.3" stroke="#d0d7de" stroke-width="0.8" stroke-opacity="0.35"/>
<line x1="460.0" y1="115.0" x2="643.2" y2="181.7" stroke="#d0d7de" stroke-width="0.8" stroke-opacity="0.35"/>
<line x1="460.0" y1="115.0" x2="688.6" y2="229.8" stroke="#d0d7de" stroke-width="0.8" stroke-opacity="0.35"/>
<line x1="460.0" y1="115.0" x2="721.7" y2="287.1" stroke="#d0d7de" stroke-width="0.8" stroke-opacity="0.35"/>
<line x1="460.0" y1="115.0" x2="740.7" y2="350.5" stroke="#d0d7de" stroke-width="0.8" stroke-opacity="0.35"/>
<line x1="460.0" y1="115.0" x2="744.5" y2="416.6" stroke="#d0d7de" stroke-width="0.8" stroke-opacity="0.35"/>
<line x1="460.0" y1="115.0" x2="733.0" y2="481.7" stroke="#d0d7de" stroke-width="0.8" stroke-opacity="0.35"/>
<line x1="460.0" y1="115.0" x2="706.8" y2="542.5" stroke="#d0d7de" stroke-width="0.8" stroke-opacity="0.35"/>
<line x1="460.0" y1="115.0" x2="667.3" y2="595.6" stroke="#d0d7de" stroke-width="0.8" stroke-opacity="0.35"/>
<line x1="460.0" y1="115.0" x2="616.6" y2="638.1" stroke="#d0d7de" stroke-width="0.8" stroke-opacity="0.35"/>
<line x1="460.0" y1="115.0" x2="557.5" y2="667.8" stroke="#d0d7de" stroke-width="0.8" stroke-opacity="0.35"/>
<line x1="460.0" y1="115.0" x2="493.1" y2="683.1" stroke="#d0d7de" stroke-width="0.8" stroke-opacity="0.35"/>
<line x1="460.0" y1="115.0" x2="426.9" y2="683.1" stroke="#d0d7de" stroke-width="0.8" stroke-opacity="0.35"/>
<line x1="460.0" y1="115.0" x2="362.5" y2="667.8" stroke="#d0d7de" stroke-width="0.8" stroke-opacity="0.35"/>
<line x1="460.0" y1="115.0" x2="303.4" y2="638.1" stroke="#d0d7de" stroke-width="0.8" stroke-opacity="0.35"/>
<line x1="460.0" y1="115.0" x2="252.7" y2="595.6" stroke="#d0d7de" stroke-width="0.8" stroke-opacity="0.35"/>
<line x1="460.0" y1="115.0" x2="213.2" y2="542.5" stroke="#d0d7de" stroke-width="0.8" stroke-opacity="0.35"/>
<line x1="460.0" y1="115.0" x2="187.0" y2="481.7" stroke="#d0d7de" stroke-width="0.8" stroke-opacity="0.35"/>
<line x1="460.0" y1="115.0" x2="179.3" y2="350.5" stroke="#d0d7de" stroke-width="0.8" stroke-opacity="0.35"/>
<line x1="460.0" y1="115.0" x2="198.3" y2="287.1" stroke="#d0d7de" stroke-width="0.8" stroke-opacity="0.35"/>
<line x1="460.0" y1="115.0" x2="231.4" y2="229.8" stroke="#d0d7de" stroke-width="0.8" stroke-opacity="0.35"/>
<line x1="460.0" y1="115.0" x2="276.8" y2="181.7" stroke="#d0d7de" stroke-width="0.8" stroke-opacity="0.35"/>
<line x1="460.0" y1="115.0" x2="332.1" y2="145.3" stroke="#d0d7de" stroke-width="0.8" stroke-opacity="0.35"/>
<line x1="460.0" y1="115.0" x2="394.3" y2="122.7" stroke="#d0d7de" stroke-width="0.8" stroke-opacity="0.35"/>
<line x1="525.7" y1="122.7" x2="587.9" y2="145.3" stroke="#d0d7de" stroke-width="0.8" stroke-opacity="0.35"/>
<line x1="525.7" y1="122.7" x2="643.2" y2="181.7" stroke="#d0d7de" stroke-width="0.8" stroke-opacity="0.35"/>
<line x1="525.7" y1="122.7" x2="688.6" y2="229.8" stroke="#d0d7de" stroke-width="0.8" stroke-opacity="0.35"/>
<line x1="525.7" y1="122.7" x2="721.7" y2="287.1" stroke="#d0d7de" stroke-width="0.8" stroke-opacity="0.35"/>
<line x1="525.7" y1="122.7" x2="740.7" y2="350.5" stroke="#d0d7de" stroke-width="0.8" stroke-opacity="0.35"/>
<line x1="525.7" y1="122.7" x2="744.5" y2="416.6" stroke="#d0d7de" stroke-width="0.8" stroke-opacity="0.35"/>
<line x1="525.7" y1="122.7" x2="733.0" y2="481.7" stroke="#d0d7de" stroke-width="0.8" stroke-opacity="0.35"/>
<line x1="525.7" y1="122.7" x2="706.8" y2="542.5" stroke="#d0d7de" stroke-width="0.8" stroke-opacity="0.35"/>
<line x1="525.7" y1="122.7" x2="667.3" y2="595.6" stroke="#d0d7de" stroke-width="0.8" stroke-opacity="0.35"/>
<line x1="525.7" y1="122.7" x2="616.6" y2="638.1" stroke="#d0d7de" stroke-width="0.8" stroke-opacity="0.35"/>
<line x1="525.7" y1="122.7" x2="557.5" y2="667.8" stroke="#d0d7de" stroke-width="0.8" stroke-opacity="0.35"/>
<line x1="525.7" y1="122.7" x2="493.1" y2="683.1" stroke="#d0d7de" stroke-width="0.8" stroke-opacity="0.35"/>
<line x1="525.7" y1="122.7" x2="303.4" y2="638.1" stroke="#d0d7de" stroke-width="0.8" stroke-opacity="0.35"/>
<line x1="525.7" y1="122.7" x2="252.7" y2="595.6" stroke="#d0d7de" stroke-width="0.8" stroke-opacity="0.35"/>
<line x1="525.7" y1="122.7" x2="213.2" y2="542.5" stroke="#d0d7de" stroke-width="0.8" stroke-opacity="0.35"/>
<line x1="525.7" y1="122.7" x2="179.3" y2="350.5" stroke="#d0d7de" stroke-width="0.8" stroke-opacity="0.35"/>
<line x1="525.7" y1="122.7" x2="198.3" y2="287.1" stroke="#d0d7de" stroke-width="0.8" stroke-opacity="0.35"/>
<line x1="525.7" y1="122.7" x2="231.4" y2="229.8" stroke="#d0d7de" stroke-width="0.8" stroke-opacity="0.35"/>
<line x1="525.7" y1="122.7" x2="276.8" y2="181.7" stroke="#d0d7de" stroke-width="0.8" stroke-opacity="0.35"/>
<line x1="525.7" y1="122.7" x2="332.1" y2="145.3" stroke="#d0d7de" stroke-width="0.8" stroke-opacity="0.35"/>
<line x1="525.7" y1="122.7" x2="394.3" y2="122.7" stroke="#d0d7de" stroke-width="0.8" stroke-opacity="0.35"/>
<line x1="587.9" y1="145.3" x2="643.2" y2="181.7" stroke="#d0d7de" stroke-width="0.8" stroke-opacity="0.35"/>
<line x1="587.9" y1="145.3" x2="688.6" y2="229.8" stroke="#d0d7de" stroke-width="0.8" stroke-opacity="0.35"/>
<line x1="587.9" y1="145.3" x2="721.7" y2="287.1" stroke="#d0d7de" stroke-width="0.8" stroke-opacity="0.35"/>
<line x1="587.9" y1="145.3" x2="740.7" y2="350.5" stroke="#d0d7de" stroke-width="0.8" stroke-opacity="0.35"/>
<line x1="587.9" y1="145.3" x2="744.5" y2="416.6" stroke="#d0d7de" stroke-width="0.8" stroke-opacity="0.35"/>
<line x1="587.9" y1="145.3" x2="733.0" y2="481.7" stroke="#d0d7de" stroke-width="0.8" stroke-opacity="0.35"/>
<line x1="587.9" y1="145.3" x2="706.8" y2="542.5" stroke="#d0d7de" stroke-width="0.8" stroke-opacity="0.35"/>
<line x1="587.9" y1="145.3" x2="667.3" y2="595.6" stroke="#d0d7de" stroke-width="0.8" stroke-opacity="0.35"/>
<line x1="587.9" y1="145.3" x2="616.6" y2="638.1" stroke="#d0d7de" stroke-width="0.8" stroke-opacity="0.35"/>
<line x1="587.9" y1="145.3" x2="557.5" y2="667.8" stroke="#d0d7de" stroke-width="0.8" stroke-opacity="0.35"/>
<line x1="587.9" y1="145.3" x2="493.1" y2="683.1" stroke="#d0d7de" stroke-width="0.8" stroke-opacity="0.35"/>
<line x1="587.9" y1="145.3" x2="303.4" y2="638.1" stroke="#d0d7de" stroke-width="0.8" stroke-opacity="0.35"/>
<line x1="587.9" y1="145.3" x2="252.7" y2="595.6" stroke="#d0d7de" stroke-width="0.8" stroke-opacity="0.35"/>
<line x1="587.9" y1="145.3" x2="213.2" y2="542.5" stroke="#d0d7de" stroke-width="0.8" stroke-opacity="0.35"/>
<line x1="587.9" y1="145.3" x2="179.3" y2="350.5" stroke="#d0d7de" stroke-width="0.8" stroke-opacity="0.35"/>
<line x1="587.9" y1="145.3" x2="198.3" y2="287.1" stroke="#d0d7de" stroke-width="0.8" stroke-opacity="0.35"/>
<line x1="587.9" y1="145.3" x2="231.4" y2="229.8" stroke="#d0d7de" stroke-width="0.8" stroke-opacity="0.35"/>
<line x1="587.9" y1="145.3" x2="276.8" y2="181.7" stroke="#d0d7de" stroke-width="0.8" stroke-opacity="0.35"/>
<line x1="587.9" y1="145.3" x2="332.1" y2="145.3" stroke="#d0d7de" stroke-width="0.8" stroke-opacity="0.35"/>
<line x1="587.9" y1="145.3" x2="394.3" y2="122.7" stroke="#d0d7de" stroke-width="0.8" stroke-opacity="0.35"/>
<line x1="643.2" y1="181.7" x2="688.6" y2="229.8" stroke="#d0d7de" stroke-width="0.8" stroke-opacity="0.35"/>
<line x1="643.2" y1="181.7" x2="721.7" y2="287.1" stroke="#d0d7de" stroke-width="0.8" stroke-opacity="0.35"/>
<line x1="643.2" y1="181.7" x2="740.7" y2="350.5" stroke="#d0d7de" stroke-width="0.8" stroke-opacity="0.35"/>
<line x1="643.2" y1="181.7" x2="744.5" y2="416.6" stroke="#d0d7de" stroke-width="0.8" stroke-opacity="0.35"/>
<line x1="643.2" y1="181.7" x2="733.0" y2="481.7" stroke="#d0d7de" stroke-width="0.8" stroke-opacity="0.35"/>
<line x1="643.2" y1="181.7" x2="706.8" y2="542.5" stroke="#d0d7de" stroke-width="0.8" stroke-opacity="0.35"/>
<line x1="643.2" y1="181.7" x2="667.3" y2="595.6" stroke="#d0d7de" stroke-width="0.8" stroke-opacity="0.35"/>
<line x1="643.2" y1="181.7" x2="616.6" y2="638.1" stroke="#d0d7de" stroke-width="0.8" stroke-opacity="0.35"/>
<line x1="643.2" y1="181.7" x2="557.5" y2="667.8" stroke="#d0d7de" stroke-width="0.8" stroke-opacity="0.35"/>
<line x1="643.2" y1="181.7" x2="493.1" y2="683.1" stroke="#d0d7de" stroke-width="0.8" stroke-opacity="0.35"/>
<line x1="643.2" y1="181.7" x2="426.9" y2="683.1" stroke="#d0d7de" stroke-width="0.8" stroke-opacity="0.35"/>
<line x1="643.2" y1="181.7" x2="362.5" y2="667.8" stroke="#d0d7de" stroke-width="0.8" stroke-opacity="0.35"/>
<line x1="643.2" y1="181.7" x2="303.4" y2="638.1" stroke="#d0d7de" stroke-width="0.8" stroke-opacity="0.35"/>
<line x1="643.2" y1="181.7" x2="252.7" y2="595.6" stroke="#d0d7de" stroke-width="0.8" stroke-opacity="0.35"/>
<line x1="643.2" y1="181.7" x2="213.2" y2="542.5" stroke="#d0d7de" stroke-width="0.8" stroke-opacity="0.35"/>
<line x1="643.2" y1="181.7" x2="187.0" y2="481.7" stroke="#d0d7de" stroke-width="0.8" stroke-opacity="0.35"/>
<line x1="643.2" y1="181.7" x2="179.3" y2="350.5" stroke="#d0d7de" stroke-width="0.8" stroke-opacity="0.35"/>
<line x1="643.2" y1="181.7" x2="198.3" y2="287.1" stroke="#d0d7de" stroke-width="0.8" stroke-opacity="0.35"/>
<line x1="643.2" y1="181.7" x2="231.4" y2="229.8" stroke="#d0d7de" stroke-width="0.8" stroke-opacity="0.35"/>
<line x1="643.2" y1="181.7" x2="276.8" y2="181.7" stroke="#d0d7de" stroke-width="0.8" stroke-opacity="0.35"/>
<line x1="643.2" y1="181.7" x2="332.1" y2="145.3" stroke="#d0d7de" stroke-width="0.8" stroke-opacity="0.35"/>
<line x1="643.2" y1="181.7" x2="394.3" y2="122.7" stroke="#d0d7de" stroke-width="0.8" stroke-opacity="0.35"/>
<line x1="688.6" y1="229.8" x2="721.7" y2="287.1" stroke="#d0d7de" stroke-width="0.8" stroke-opacity="0.35"/>
<line x1="688.6" y1="229.8" x2="740.7" y2="350.5" stroke="#d0d7de" stroke-width="0.8" stroke-opacity="0.35"/>
<line x1="688.6" y1="229.8" x2="744.5" y2="416.6" stroke="#d0d7de" stroke-width="0.8" stroke-opacity="0.35"/>
<line x1="688.6" y1="229.8" x2="733.0" y2="481.7" stroke="#d0d7de" stroke-width="0.8" stroke-opacity="0.35"/>
<line x1="688.6" y1="229.8" x2="706.8" y2="542.5" stroke="#d0d7de" stroke-width="0.8" stroke-opacity="0.35"/>
<line x1="688.6" y1="229.8" x2="667.3" y2="595.6" stroke="#d0d7de" stroke-width="0.8" stroke-opacity="0.35"/>
<line x1="688.6" y1="229.8" x2="616.6" y2="638.1" stroke="#d0d7de" stroke-width="0.8" stroke-opacity="0.35"/>
<line x1="688.6" y1="229.8" x2="557.5" y2="667.8" stroke="#d0d7de" stroke-width="0.8" stroke-opacity="0.35"/>
<line x1="688.6" y1="229.8" x2="493.1" y2="683.1" stroke="#d0d7de" stroke-width="0.8" stroke-opacity="0.35"/>
<line x1="688.6" y1="229.8" x2="426.9" y2="683.1" stroke="#d0d7de" stroke-width="0.8" stroke-opacity="0.35"/>
<line x1="688.6" y1="229.8" x2="362.5" y2="667.8" stroke="#d0d7de" stroke-width="0.8" stroke-opacity="0.35"/>
<line x1="688.6" y1="229.8" x2="303.4" y2="638.1" stroke="#d0d7de" stroke-width="0.8" stroke-opacity="0.35"/>
<line x1="688.6" y1="229.8" x2="252.7" y2="595.6" stroke="#d0d7de" stroke-width="0.8" stroke-opacity="0.35"/>
<line x1="688.6" y1="229.8" x2="213.2" y2="542.5" stroke="#d0d7de" stroke-width="0.8" stroke-opacity="0.35"/>
<line x1="688.6" y1="229.8" x2="187.0" y2="481.7" stroke="#d0d7de" stroke-width="0.8" stroke-opacity="0.35"/>
<line x1="688.6" y1="229.8" x2="179.3" y2="350.5" stroke="#d0d7de" stroke-width="0.8" stroke-opacity="0.35"/>
<line x1="688.6" y1="229.8" x2="198.3" y2="287.1" stroke="#d0d7de" stroke-width="0.8" stroke-opacity="0.35"/>
<line x1="688.6" y1="229.8" x2="231.4" y2="229.8" stroke="#d0d7de" stroke-width="0.8" stroke-opacity="0.35"/>
<line x1="688.6" y1="229.8" x2="276.8" y2="181.7" stroke="#d0d7de" stroke-width="0.8" stroke-opacity="0.35"/>
<line x1="688.6" y1="229.8" x2="332.1" y2="145.3" stroke="#d0d7de" stroke-width="0.8" stroke-opacity="0.35"/>
<line x1="688.6" y1="229.8" x2="394.3" y2="122.7" stroke="#d0d7de" stroke-width="0.8" stroke-opacity="0.35"/>
<line x1="721.7" y1="287.1" x2="740.7" y2="350.5" stroke="#d0d7de" stroke-width="0.8" stroke-opacity="0.35"/>
<line x1="721.7" y1="287.1" x2="744.5" y2="416.6" stroke="#d0d7de" stroke-width="0.8" stroke-opacity="0.35"/>
<line x1="721.7" y1="287.1" x2="733.0" y2="481.7" stroke="#d0d7de" stroke-width="0.8" stroke-opacity="0.35"/>
<line x1="721.7" y1="287.1" x2="706.8" y2="542.5" stroke="#d0d7de" stroke-width="0.8" stroke-opacity="0.35"/>
<line x1="721.7" y1="287.1" x2="667.3" y2="595.6" stroke="#d0d7de" stroke-width="0.8" stroke-opacity="0.35"/>
<line x1="721.7" y1="287.1" x2="616.6" y2="638.1" stroke="#d0d7de" stroke-width="0.8" stroke-opacity="0.35"/>
<line x1="721.7" y1="287.1" x2="557.5" y2="667.8" stroke="#d0d7de" stroke-width="0.8" stroke-opacity="0.35"/>
<line x1="721.7" y1="287.1" x2="493.1" y2="683.1" stroke="#d0d7de" stroke-width="0.8" stroke-opacity="0.35"/>
<line x1="721.7" y1="287.1" x2="426.9" y2="683.1" stroke="#d0d7de" stroke-width="0.8" stroke-opacity="0.35"/>
<line x1="721.7" y1="287.1" x2="362.5" y2="667.8" stroke="#d0d7de" stroke-width="0.8" stroke-opacity="0.35"/>
<line x1="721.7" y1="287.1" x2="303.4" y2="638.1" stroke="#d0d7de" stroke-width="0.8" stroke-opacity="0.35"/>
<line x1="721.7" y1="287.1" x2="252.7" y2="595.6" stroke="#d0d7de" stroke-width="0.8" stroke-opacity="0.35"/>
<line x1="721.7" y1="287.1" x2="213.2" y2="542.5" stroke="#d0d7de" stroke-width="0.8" stroke-opacity="0.35"/>
<line x1="721.7" y1="287.1" x2="187.0" y2="481.7" stroke="#d0d7de" stroke-width="0.8" stroke-opacity="0.35"/>
<line x1="721.7" y1="287.1" x2="179.3" y2="350.5" stroke="#d0d7de" stroke-width="0.8" stroke-opacity="0.35"/>
<line x1="721.7" y1="287.1" x2="198.3" y2="287.1" stroke="#d0d7de" stroke-width="0.8" stroke-opacity="0.35"/>
<line x1="721.7" y1="287.1" x2="231.4" y2="229.8" stroke="#d0d7de" stroke-width="0.8" stroke-opacity="0.35"/>
<line x1="721.7" y1="287.1" x2="276.8" y2="181.7" stroke="#d0d7de" stroke-width="0.8" stroke-opacity="0.35"/>
<line x1="721.7" y1="287.1" x2="332.1" y2="145.3" stroke="#d0d7de" stroke-width="0.8" stroke-opacity="0.35"/>
<line x1="721.7" y1="287.1" x2="394.3" y2="122.7" stroke="#d0d7de" stroke-width="0.8" stroke-opacity="0.35"/>
<line x1="740.7" y1="350.5" x2="744.5" y2="416.6" stroke="#d0d7de" stroke-width="0.8" stroke-opacity="0.35"/>
<line x1="740.7" y1="350.5" x2="733.0" y2="481.7" stroke="#d0d7de" stroke-width="0.8" stroke-opacity="0.35"/>
<line x1="740.7" y1="350.5" x2="706.8" y2="542.5" stroke="#d0d7de" stroke-width="0.8" stroke-opacity="0.35"/>
<line x1="740.7" y1="350.5" x2="667.3" y2="595.6" stroke="#d0d7de" stroke-width="0.8" stroke-opacity="0.35"/>
<line x1="740.7" y1="350.5" x2="616.6" y2="638.1" stroke="#d0d7de" stroke-width="0.8" stroke-opacity="0.35"/>
<line x1="740.7" y1="350.5" x2="557.5" y2="667.8" stroke="#d0d7de" stroke-width="0.8" stroke-opacity="0.35"/>
<line x1="740.7" y1="350.5" x2="493.1" y2="683.1" stroke="#d0d7de" stroke-width="0.8" stroke-opacity="0.35"/>
<line x1="740.7" y1="350.5" x2="303.4" y2="638.1" stroke="#d0d7de" stroke-width="0.8" stroke-opacity="0.35"/>
<line x1="740.7" y1="350.5" x2="252.7" y2="595.6" stroke="#d0d7de" stroke-width="0.8" stroke-opacity="0.35"/>
<line x1="740.7" y1="350.5" x2="213.2" y2="542.5" stroke="#d0d7de" stroke-width="0.8" stroke-opacity="0.35"/>
<line x1="740.7" y1="350.5" x2="179.3" y2="350.5" stroke="#d0d7de" stroke-width="0.8" stroke-opacity="0.35"/>
<line x1="740.7" y1="350.5" x2="198.3" y2="287.1" stroke="#d0d7de" stroke-width="0.8" stroke-opacity="0.35"/>
<line x1="740.7" y1="350.5" x2="231.4" y2="229.8" stroke="#d0d7de" stroke-width="0.8" stroke-opacity="0.35"/>
<line x1="740.7" y1="350.5" x2="276.8" y2="181.7" stroke="#d0d7de" stroke-width="0.8" stroke-opacity="0.35"/>
<line x1="740.7" y1="350.5" x2="332.1" y2="145.3" stroke="#d0d7de" stroke-width="0.8" stroke-opacity="0.35"/>
<line x1="740.7" y1="350.5" x2="394.3" y2="122.7" stroke="#d0d7de" stroke-width="0.8" stroke-opacity="0.35"/>
<line x1="744.5" y1="416.6" x2="733.0" y2="481.7" stroke="#d0d7de" stroke-width="0.8" stroke-opacity="0.35"/>
<line x1="744.5" y1="416.6" x2="706.8" y2="542.5" stroke="#d0d7de" stroke-width="0.8" stroke-opacity="0.35"/>
<line x1="744.5" y1="416.6" x2="667.3" y2="595.6" stroke="#d0d7de" stroke-width="0.8" stroke-opacity="0.35"/>
<line x1="744.5" y1="416.6" x2="616.6" y2="638.1" stroke="#d0d7de" stroke-width="0.8" stroke-opacity="0.35"/>
<line x1="744.5" y1="416.6" x2="557.5" y2="667.8" stroke="#d0d7de" stroke-width="0.8" stroke-opacity="0.35"/>
<line x1="744.5" y1="416.6" x2="493.1" y2="683.1" stroke="#d0d7de" stroke-width="0.8" stroke-opacity="0.35"/>
<line x1="744.5" y1="416.6" x2="303.4" y2="638.1" stroke="#d0d7de" stroke-width="0.8" stroke-opacity="0.35"/>
<line x1="744.5" y1="416.6" x2="252.7" y2="595.6" stroke="#d0d7de" stroke-width="0.8" stroke-opacity="0.35"/>
<line x1="744.5" y1="416.6" x2="213.2" y2="542.5" stroke="#d0d7de" stroke-width="0.8" stroke-opacity="0.35"/>
<line x1="744.5" y1="416.6" x2="187.0" y2="481.7" stroke="#d0d7de" stroke-width="0.8" stroke-opacity="0.35"/>
<line x1="744.5" y1="416.6" x2="179.3" y2="350.5" stroke="#d0d7de" stroke-width="0.8" stroke-opacity="0.35"/>
<line x1="744.5" y1="416.6" x2="198.3" y2="287.1" stroke="#d0d7de" stroke-width="0.8" stroke-opacity="0.35"/>
<line x1="744.5" y1="416.6" x2="231.4" y2="229.8" stroke="#d0d7de" stroke-width="0.8" stroke-opacity="0.35"/>
<line x1="744.5" y1="416.6" x2="276.8" y2="181.7" stroke="#d0d7de" stroke-width="0.8" stroke-opacity="0.35"/>
<line x1="744.5" y1="416.6" x2="332.1" y2="145.3" stroke="#d0d7de" stroke-width="0.8" stroke-opacity="0.35"/>
<line x1="744.5" y1="416.6" x2="394.3" y2="122.7" stroke="#d0d7de" stroke-width="0.8" stroke-opacity="0.35"/>
<line x1="733.0" y1="481.7" x2="706.8" y2="542.5" stroke="#d0d7de" stroke-width="0.8" stroke-opacity="0.35"/>
<line x1="733.0" y1="481.7" x2="667.3" y2="595.6" stroke="#d0d7de" stroke-width="0.8" stroke-opacity="0.35"/>
<line x1="733.0" y1="481.7" x2="616.6" y2="638.1" stroke="#d0d7de" stroke-width="0.8" stroke-opacity="0.35"/>
<line x1="733.0" y1="481.7" x2="557.5" y2="667.8" stroke="#d0d7de" stroke-width="0.8" stroke-opacity="0.35"/>
<line x1="733.0" y1="481.7" x2="493.1" y2="683.1" stroke="#d0d7de" stroke-width="0.8" stroke-opacity="0.35"/>
<line x1="733.0" y1="481.7" x2="426.9" y2="683.1" stroke="#d0d7de" stroke-width="0.8" stroke-opacity="0.35"/>
<line x1="733.0" y1="481.7" x2="362.5" y2="667.8" stroke="#d0d7de" stroke-width="0.8" stroke-opacity="0.35"/>
<line x1="733.0" y1="481.7" x2="303.4" y2="638.1" stroke="#d0d7de" stroke-width="0.8" stroke-opacity="0.35"/>
<line x1="733.0" y1="481.7" x2="252.7" y2="595.6" stroke="#d0d7de" stroke-width="0.8" stroke-opacity="0.35"/>
<line x1="733.0" y1="481.7" x2="213.2" y2="542.5" stroke="#d0d7de" stroke-width="0.8" stroke-opacity="0.35"/>
<line x1="733.0" y1="481.7" x2="187.0" y2="481.7" stroke="#d0d7de" stroke-width="0.8" stroke-opacity="0.35"/>
<line x1="733.0" y1="481.7" x2="175.5" y2="416.6" stroke="#d0d7de" stroke-width="0.8" stroke-opacity="0.35"/>
<line x1="733.0" y1="481.7" x2="179.3" y2="350.5" stroke="#d0d7de" stroke-width="0.8" stroke-opacity="0.35"/>
<line x1="733.0" y1="481.7" x2="198.3" y2="287.1" stroke="#d0d7de" stroke-width="0.8" stroke-opacity="0.35"/>
<line x1="733.0" y1="481.7" x2="231.4" y2="229.8" stroke="#d0d7de" stroke-width="0.8" stroke-opacity="0.35"/>
<line x1="733.0" y1="481.7" x2="276.8" y2="181.7" stroke="#d0d7de" stroke-width="0.8" stroke-opacity="0.35"/>
<line x1="733.0" y1="481.7" x2="332.1" y2="145.3" stroke="#d0d7de" stroke-width="0.8" stroke-opacity="0.35"/>
<line x1="733.0" y1="481.7" x2="394.3" y2="122.7" stroke="#d0d7de" stroke-width="0.8" stroke-opacity="0.35"/>
<line x1="706.8" y1="542.5" x2="667.3" y2="595.6" stroke="#d0d7de" stroke-width="0.8" stroke-opacity="0.35"/>
<line x1="706.8" y1="542.5" x2="616.6" y2="638.1" stroke="#d0d7de" stroke-width="0.8" stroke-opacity="0.35"/>
<line x1="706.8" y1="542.5" x2="557.5" y2="667.8" stroke="#d0d7de" stroke-width="0.8" stroke-opacity="0.35"/>
<line x1="706.8" y1="542.5" x2="493.1" y2="683.1" stroke="#d0d7de" stroke-width="0.8" stroke-opacity="0.35"/>
<line x1="706.8" y1="542.5" x2="426.9" y2="683.1" stroke="#d0d7de" stroke-width="0.8" stroke-opacity="0.35"/>
<line x1="706.8" y1="542.5" x2="362.5" y2="667.8" stroke="#d0d7de" stroke-width="0.8" stroke-opacity="0.35"/>
<line x1="706.8" y1="542.5" x2="303.4" y2="638.1" stroke="#d0d7de" stroke-width="0.8" stroke-opacity="0.35"/>
<line x1="706.8" y1="542.5" x2="252.7" y2="595.6" stroke="#d0d7de" stroke-width="0.8" stroke-opacity="0.35"/>
<line x1="706.8" y1="542.5" x2="213.2" y2="542.5" stroke="#d0d7de" stroke-width="0.8" stroke-opacity="0.35"/>
<line x1="706.8" y1="542.5" x2="187.0" y2="481.7" stroke="#d0d7de" stroke-width="0.8" stroke-opacity="0.35"/>
<line x1="706.8" y1="542.5" x2="175.5" y2="416.6" stroke="#d0d7de" stroke-width="0.8" stroke-opacity="0.35"/>
<line x1="706.8" y1="542.5" x2="179.3" y2="350.5" stroke="#d0d7de" stroke-width="0.8" stroke-opacity="0.35"/>
<line x1="706.8" y1="542.5" x2="198.3" y2="287.1" stroke="#d0d7de" stroke-width="0.8" stroke-opacity="0.35"/>
<line x1="706.8" y1="542.5" x2="231.4" y2="229.8" stroke="#d0d7de" stroke-width="0.8" stroke-opacity="0.35"/>
<line x1="706.8" y1="542.5" x2="276.8" y2="181.7" stroke="#d0d7de" stroke-width="0.8" stroke-opacity="0.35"/>
<line x1="706.8" y1="542.5" x2="332.1" y2="145.3" stroke="#d0d7de" stroke-width="0.8" stroke-opacity="0.35"/>
<line x1="706.8" y1="542.5" x2="394.3" y2="122.7" stroke="#d0d7de" stroke-width="0.8" stroke-opacity="0.35"/>
<line x1="667.3" y1="595.6" x2="616.6" y2="638.1" stroke="#d0d7de" stroke-width="0.8" stroke-opacity="0.35"/>
<line x1="667.3" y1="595.6" x2="557.5" y2="667.8" stroke="#d0d7de" stroke-width="0.8" stroke-opacity="0.35"/>
<line x1="667.3" y1="595.6" x2="493.1" y2="683.1" stroke="#d0d7de" stroke-width="0.8" stroke-opacity="0.35"/>
<line x1="667.3" y1="595.6" x2="426.9" y2="683.1" stroke="#d0d7de" stroke-width="0.8" stroke-opacity="0.35"/>
<line x1="667.3" y1="595.6" x2="362.5" y2="667.8" stroke="#d0d7de" stroke-width="0.8" stroke-opacity="0.35"/>
<line x1="667.3" y1="595.6" x2="303.4" y2="638.1" stroke="#d0d7de" stroke-width="0.8" stroke-opacity="0.35"/>
<line x1="667.3" y1="595.6" x2="252.7" y2="595.6" stroke="#d0d7de" stroke-width="0.8" stroke-opacity="0.35"/>
<line x1="667.3" y1="595.6" x2="213.2" y2="542.5" stroke="#d0d7de" stroke-width="0.8" stroke-opacity="0.35"/>
<line x1="667.3" y1="595.6" x2="187.0" y2="481.7" stroke="#d0d7de" stroke-width="0.8" stroke-opacity="0.35"/>
<line x1="667.3" y1="595.6" x2="175.5" y2="416.6" stroke="#d0d7de" stroke-width="0.8" stroke-opacity="0.35"/>
<line x1="667.3" y1="595.6" x2="179.3" y2="350.5" stroke="#d0d7de" stroke-width="0.8" stroke-opacity="0.35"/>
<line x1="667.3" y1="595.6" x2="198.3" y2="287.1" stroke="#d0d7de" stroke-width="0.8" stroke-opacity="0.35"/>
<line x1="667.3" y1="595.6" x2="231.4" y2="229.8" stroke="#d0d7de" stroke-width="0.8" stroke-opacity="0.35"/>
<line x1="667.3" y1="595.6" x2="276.8" y2="181.7" stroke="#d0d7de" stroke-width="0.8" stroke-opacity="0.35"/>
<line x1="667.3" y1="595.6" x2="332.1" y2="145.3" stroke="#d0d7de" stroke-width="0.8" stroke-opacity="0.35"/>
<line x1="667.3" y1="595.6" x2="394.3" y2="122.7" stroke="#d0d7de" stroke-width="0.8" stroke-opacity="0.35"/>
<line x1="616.6" y1="638.1" x2="557.5" y2="667.8" stroke="#d0d7de" stroke-width="0.8" stroke-opacity="0.35"/>
<line x1="616.6" y1="638.1" x2="493.1" y2="683.1" stroke="#d0d7de" stroke-width="0.8" stroke-opacity="0.35"/>
<line x1="616.6" y1="638.1" x2="426.9" y2="683.1" stroke="#d0d7de" stroke-width="0.8" stroke-opacity="0.35"/>
<line x1="616.6" y1="638.1" x2="362.5" y2="667.8" stroke="#d0d7de" stroke-width="0.8" stroke-opacity="0.35"/>
<line x1="616.6" y1="638.1" x2="303.4" y2="638.1" stroke="#d0d7de" stroke-width="0.8" stroke-opacity="0.35"/>
<line x1="616.6" y1="638.1" x2="252.7" y2="595.6" stroke="#d0d7de" stroke-width="0.8" stroke-opacity="0.35"/>
<line x1="616.6" y1="638.1" x2="213.2" y2="542.5" stroke="#d0d7de" stroke-width="0.8" stroke-opacity="0.35"/>
<line x1="616.6" y1="638.1" x2="187.0" y2="481.7" stroke="#d0d7de" stroke-width="0.8" stroke-opacity="0.35"/>
<line x1="616.6" y1="638.1" x2="175.5" y2="416.6" stroke="#d0d7de" stroke-width="0.8" stroke-opacity="0.35"/>
<line x1="616.6" y1="638.1" x2="179.3" y2="350.5" stroke="#d0d7de" stroke-width="0.8" stroke-opacity="0.35"/>
<line x1="616.6" y1="638.1" x2="198.3" y2="287.1" stroke="#d0d7de" stroke-width="0.8" stroke-opacity="0.35"/>
<line x1="616.6" y1="638.1" x2="231.4" y2="229.8" stroke="#d0d7de" stroke-width="0.8" stroke-opacity="0.35"/>
<line x1="616.6" y1="638.1" x2="276.8" y2="181.7" stroke="#d0d7de" stroke-width="0.8" stroke-opacity="0.35"/>
<line x1="616.6" y1="638.1" x2="332.1" y2="145.3" stroke="#d0d7de" stroke-width="0.8" stroke-opacity="0.35"/>
<line x1="616.6" y1="638.1" x2="394.3" y2="122.7" stroke="#d0d7de" stroke-width="0.8" stroke-opacity="0.35"/>
<line x1="557.5" y1="667.8" x2="493.1" y2="683.1" stroke="#d0d7de" stroke-width="0.8" stroke-opacity="0.35"/>
<line x1="557.5" y1="667.8" x2="426.9" y2="683.1" stroke="#d0d7de" stroke-width="0.8" stroke-opacity="0.35"/>
<line x1="557.5" y1="667.8" x2="362.5" y2="667.8" stroke="#d0d7de" stroke-width="0.8" stroke-opacity="0.35"/>
<line x1="557.5" y1="667.8" x2="303.4" y2="638.1" stroke="#d0d7de" stroke-width="0.8" stroke-opacity="0.35"/>
<line x1="557.5" y1="667.8" x2="252.7" y2="595.6" stroke="#d0d7de" stroke-width="0.8" stroke-opacity="0.35"/>
<line x1="557.5" y1="667.8" x2="213.2" y2="542.5" stroke="#d0d7de" stroke-width="0.8" stroke-opacity="0.35"/>
<line x1="557.5" y1="667.8" x2="187.0" y2="481.7" stroke="#d0d7de" stroke-width="0.8" stroke-opacity="0.35"/>
<line x1="557.5" y1="667.8" x2="175.5" y2="416.6" stroke="#d0d7de" stroke-width="0.8" stroke-opacity="0.35"/>
<line x1="557.5" y1="667.8" x2="179.3" y2="350.5" stroke="#d0d7de" stroke-width="0.8" stroke-opacity="0.35"/>
<line x1="557.5" y1="667.8" x2="198.3" y2="287.1" stroke="#d0d7de" stroke-width="0.8" stroke-opacity="0.35"/>
<line x1="557.5" y1="667.8" x2="231.4" y2="229.8" stroke="#d0d7de" stroke-width="0.8" stroke-opacity="0.35"/>
<line x1="557.5" y1="667.8" x2="276.8" y2="181.7" stroke="#d0d7de" stroke-width="0.8" stroke-opacity="0.35"/>
<line x1="557.5" y1="667.8" x2="332.1" y2="145.3" stroke="#d0d7de" stroke-width="0.8" stroke-opacity="0.35"/>
<line x1="557.5" y1="667.8" x2="394.3" y2="122.7" stroke="#d0d7de" stroke-width="0.8" stroke-opacity="0.35"/>
<line x1="493.1" y1="683.1" x2="426.9" y2="683.1" stroke="#d0d7de" stroke-width="0.8" stroke-opacity="0.35"/>
<line x1="493.1" y1="683.1" x2="362.5" y2="667.8" stroke="#d0d7de" stroke-width="0.8" stroke-opacity="0.35"/>
<line x1="493.1" y1="683.1" x2="303.4" y2="638.1" stroke="#d0d7de" stroke-width="0.8" stroke-opacity="0.35"/>
<line x1="493.1" y1="683.1" x2="252.7" y2="595.6" stroke="#d0d7de" stroke-width="0.8" stroke-opacity="0.35"/>
<line x1="493.1" y1="683.1" x2="213.2" y2="542.5" stroke="#d0d7de" stroke-width="0.8" stroke-opacity="0.35"/>
<line x1="493.1" y1="683.1" x2="187.0" y2="481.7" stroke="#d0d7de" stroke-width="0.8" stroke-opacity="0.35"/>
<line x1="493.1" y1="683.1" x2="175.5" y2="416.6" stroke="#d0d7de" stroke-width="0.8" stroke-opacity="0.35"/>
<line x1="493.1" y1="683.1" x2="179.3" y2="350.5" stroke="#d0d7de" stroke-width="0.8" stroke-opacity="0.35"/>
<line x1="493.1" y1="683.1" x2="198.3" y2="287.1" stroke="#d0d7de" stroke-width="0.8" stroke-opacity="0.35"/>
<line x1="493.1" y1="683.1" x2="231.4" y2="229.8" stroke="#d0d7de" stroke-width="0.8" stroke-opacity="0.35"/>
<line x1="493.1" y1="683.1" x2="276.8" y2="181.7" stroke="#d0d7de" stroke-width="0.8" stroke-opacity="0.35"/>
<line x1="493.1" y1="683.1" x2="332.1" y2="145.3" stroke="#d0d7de" stroke-width="0.8" stroke-opacity="0.35"/>
<line x1="493.1" y1="683.1" x2="394.3" y2="122.7" stroke="#d0d7de" stroke-width="0.8" stroke-opacity="0.35"/>
<line x1="426.9" y1="683.1" x2="362.5" y2="667.8" stroke="#d0d7de" stroke-width="0.8" stroke-opacity="0.35"/>
<line x1="426.9" y1="683.1" x2="303.4" y2="638.1" stroke="#d0d7de" stroke-width="0.8" stroke-opacity="0.35"/>
<line x1="426.9" y1="683.1" x2="252.7" y2="595.6" stroke="#d0d7de" stroke-width="0.8" stroke-opacity="0.35"/>
<line x1="426.9" y1="683.1" x2="213.2" y2="542.5" stroke="#d0d7de" stroke-width="0.8" stroke-opacity="0.35"/>
<line x1="426.9" y1="683.1" x2="187.0" y2="481.7" stroke="#d0d7de" stroke-width="0.8" stroke-opacity="0.35"/>
<line x1="426.9" y1="683.1" x2="175.5" y2="416.6" stroke="#d0d7de" stroke-width="0.8" stroke-opacity="0.35"/>
<line x1="426.9" y1="683.1" x2="179.3" y2="350.5" stroke="#d0d7de" stroke-width="0.8" stroke-opacity="0.35"/>
<line x1="426.9" y1="683.1" x2="198.3" y2="287.1" stroke="#d0d7de" stroke-width="0.8" stroke-opacity="0.35"/>
<line x1="426.9" y1="683.1" x2="231.4" y2="229.8" stroke="#d0d7de" stroke-width="0.8" stroke-opacity="0.35"/>
<line x1="426.9" y1="683.1" x2="276.8" y2="181.7" stroke="#d0d7de" stroke-width="0.8" stroke-opacity="0.35"/>
<line x1="426.9" y1="683.1" x2="332.1" y2="145.3" stroke="#d0d7de" stroke-width="0.8" stroke-opacity="0.35"/>
<line x1="426.9" y1="683.1" x2="394.3" y2="122.7" stroke="#d0d7de" stroke-width="0.8" stroke-opacity="0.35"/>
<line x1="362.5" y1="667.8" x2="303.4" y2="638.1" stroke="#d0d7de" stroke-width="0.8" stroke-opacity="0.35"/>
<line x1="362.5" y1="667.8" x2="252.7" y2="595.6" stroke="#d0d7de" stroke-width="0.8" stroke-opacity="0.35"/>
<line x1="362.5" y1="667.8" x2="213.2" y2="542.5" stroke="#d0d7de" stroke-width="0.8" stroke-opacity="0.35"/>
<line x1="362.5" y1="667.8" x2="187.0" y2="481.7" stroke="#d0d7de" stroke-width="0.8" stroke-opacity="0.35"/>
<line x1="362.5" y1="667.8" x2="175.5" y2="416.6" stroke="#d0d7de" stroke-width="0.8" stroke-opacity="0.35"/>
<line x1="362.5" y1="667.8" x2="179.3" y2="350.5" stroke="#d0d7de" stroke-width="0.8" stroke-opacity="0.35"/>
<line x1="362.5" y1="667.8" x2="198.3" y2="287.1" stroke="#d0d7de" stroke-width="0.8" stroke-opacity="0.35"/>
<line x1="362.5" y1="667.8" x2="231.4" y2="229.8" stroke="#d0d7de" stroke-width="0.8" stroke-opacity="0.35"/>
<line x1="362.5" y1="667.8" x2="276.8" y2="181.7" stroke="#d0d7de" stroke-width="0.8" stroke-opacity="0.35"/>
<line x1="362.5" y1="667.8" x2="332.1" y2="145.3" stroke="#d0d7de" stroke-width="0.8" stroke-opacity="0.35"/>
<line x1="362.5" y1="667.8" x2="394.3" y2="122.7" stroke="#d0d7de" stroke-width="0.8" stroke-opacity="0.35"/>
<line x1="303.4" y1="638.1" x2="252.7" y2="595.6" stroke="#d0d7de" stroke-width="0.8" stroke-opacity="0.35"/>
<line x1="303.4" y1="638.1" x2="213.2" y2="542.5" stroke="#d0d7de" stroke-width="0.8" stroke-opacity="0.35"/>
<line x1="303.4" y1="638.1" x2="187.0" y2="481.7" stroke="#d0d7de" stroke-width="0.8" stroke-opacity="0.35"/>
<line x1="303.4" y1="638.1" x2="175.5" y2="416.6" stroke="#d0d7de" stroke-width="0.8" stroke-opacity="0.35"/>
<line x1="303.4" y1="638.1" x2="179.3" y2="350.5" stroke="#d0d7de" stroke-width="0.8" stroke-opacity="0.35"/>
<line x1="303.4" y1="638.1" x2="198.3" y2="287.1" stroke="#d0d7de" stroke-width="0.8" stroke-opacity="0.35"/>
<line x1="303.4" y1="638.1" x2="231.4" y2="229.8" stroke="#d0d7de" stroke-width="0.8" stroke-opacity="0.35"/>
<line x1="303.4" y1="638.1" x2="276.8" y2="181.7" stroke="#d0d7de" stroke-width="0.8" stroke-opacity="0.35"/>
<line x1="303.4" y1="638.1" x2="332.1" y2="145.3" stroke="#d0d7de" stroke-width="0.8" stroke-opacity="0.35"/>
<line x1="303.4" y1="638.1" x2="394.3" y2="122.7" stroke="#d0d7de" stroke-width="0.8" stroke-opacity="0.35"/>
<line x1="252.7" y1="595.6" x2="213.2" y2="542.5" stroke="#d0d7de" stroke-width="0.8" stroke-opacity="0.35"/>
<line x1="252.7" y1="595.6" x2="187.0" y2="481.7" stroke="#d0d7de" stroke-width="0.8" stroke-opacity="0.35"/>
<line x1="252.7" y1="595.6" x2="175.5" y2="416.6" stroke="#d0d7de" stroke-width="0.8" stroke-opacity="0.35"/>
<line x1="252.7" y1="595.6" x2="179.3" y2="350.5" stroke="#d0d7de" stroke-width="0.8" stroke-opacity="0.35"/>
<line x1="252.7" y1="595.6" x2="198.3" y2="287.1" stroke="#d0d7de" stroke-width="0.8" stroke-opacity="0.35"/>
<line x1="252.7" y1="595.6" x2="231.4" y2="229.8" stroke="#d0d7de" stroke-width="0.8" stroke-opacity="0.35"/>
<line x1="252.7" y1="595.6" x2="276.8" y2="181.7" stroke="#d0d7de" stroke-width="0.8" stroke-opacity="0.35"/>
<line x1="252.7" y1="595.6" x2="332.1" y2="145.3" stroke="#d0d7de" stroke-width="0.8" stroke-opacity="0.35"/>
<line x1="252.7" y1="595.6" x2="394.3" y2="122.7" stroke="#d0d7de" stroke-width="0.8" stroke-opacity="0.35"/>
<line x1="213.2" y1="542.5" x2="187.0" y2="481.7" stroke="#d0d7de" stroke-width="0.8" stroke-opacity="0.35"/>
<line x1="213.2" y1="542.5" x2="175.5" y2="416.6" stroke="#d0d7de" stroke-width="0.8" stroke-opacity="0.35"/>
<line x1="213.2" y1="542.5" x2="179.3" y2="350.5" stroke="#d0d7de" stroke-width="0.8" stroke-opacity="0.35"/>
<line x1="213.2" y1="542.5" x2="198.3" y2="287.1" stroke="#d0d7de" stroke-width="0.8" stroke-opacity="0.35"/>
<line x1="213.2" y1="542.5" x2="231.4" y2="229.8" stroke="#d0d7de" stroke-width="0.8" stroke-opacity="0.35"/>
<line x1="213.2" y1="542.5" x2="276.8" y2="181.7" stroke="#d0d7de" stroke-width="0.8" stroke-opacity="0.35"/>
<line x1="213.2" y1="542.5" x2="332.1" y2="145.3" stroke="#d0d7de" stroke-width="0.8" stroke-opacity="0.35"/>
<line x1="213.2" y1="542.5" x2="394.3" y2="122.7" stroke="#d0d7de" stroke-width="0.8" stroke-opacity="0.35"/>
<line x1="187.0" y1="481.7" x2="175.5" y2="416.6" stroke="#d0d7de" stroke-width="0.8" stroke-opacity="0.35"/>
<line x1="187.0" y1="481.7" x2="179.3" y2="350.5" stroke="#d0d7de" stroke-width="0.8" stroke-opacity="0.35"/>
<line x1="187.0" y1="481.7" x2="198.3" y2="287.1" stroke="#d0d7de" stroke-width="0.8" stroke-opacity="0.35"/>
<line x1="187.0" y1="481.7" x2="231.4" y2="229.8" stroke="#d0d7de" stroke-width="0.8" stroke-opacity="0.35"/>
<line x1="187.0" y1="481.7" x2="276.8" y2="181.7" stroke="#d0d7de" stroke-width="0.8" stroke-opacity="0.35"/>
<line x1="187.0" y1="481.7" x2="332.1" y2="145.3" stroke="#d0d7de" stroke-width="0.8" stroke-opacity="0.35"/>
<line x1="187.0" y1="481.7" x2="394.3" y2="122.7" stroke="#d0d7de" stroke-width="0.8" stroke-opacity="0.35"/>
<line x1="175.5" y1="416.6" x2="179.3" y2="350.5" stroke="#d0d7de" stroke-width="0.8" stroke-opacity="0.35"/>
<line x1="175.5" y1="416.6" x2="198.3" y2="287.1" stroke="#d0d7de" stroke-width="0.8" stroke-opacity="0.35"/>
<line x1="175.5" y1="416.6" x2="231.4" y2="229.8" stroke="#d0d7de" stroke-width="0.8" stroke-opacity="0.35"/>
<line x1="175.5" y1="416.6" x2="276.8" y2="181.7" stroke="#d0d7de" stroke-width="0.8" stroke-opacity="0.35"/>
<line x1="175.5" y1="416.6" x2="332.1" y2="145.3" stroke="#d0d7de" stroke-width="0.8" stroke-opacity="0.35"/>
<line x1="175.5" y1="416.6" x2="394.3" y2="122.7" stroke="#d0d7de" stroke-width="0.8" stroke-opacity="0.35"/>
<line x1="179.3" y1="350.5" x2="198.3" y2="287.1" stroke="#d0d7de" stroke-width="0.8" stroke-opacity="0.35"/>
<line x1="179.3" y1="350.5" x2="231.4" y2="229.8" stroke="#d0d7de" stroke-width="0.8" stroke-opacity="0.35"/>
<line x1="179.3" y1="350.5" x2="276.8" y2="181.7" stroke="#d0d7de" stroke-width="0.8" stroke-opacity="0.35"/>
<line x1="179.3" y1="350.5" x2="332.1" y2="145.3" stroke="#d0d7de" stroke-width="0.8" stroke-opacity="0.35"/>
<line x1="179.3" y1="350.5" x2="394.3" y2="122.7" stroke="#d0d7de" stroke-width="0.8" stroke-opacity="0.35"/>
<line x1="198.3" y1="287.1" x2="231.4" y2="229.8" stroke="#d0d7de" stroke-width="0.8" stroke-opacity="0.35"/>
<line x1="198.3" y1="287.1" x2="276.8" y2="181.7" stroke="#d0d7de" stroke-width="0.8" stroke-opacity="0.35"/>
<line x1="198.3" y1="287.1" x2="332.1" y2="145.3" stroke="#d0d7de" stroke-width="0.8" stroke-opacity="0.35"/>
<line x1="198.3" y1="287.1" x2="394.3" y2="122.7" stroke="#d0d7de" stroke-width="0.8" stroke-opacity="0.35"/>
<line x1="231.4" y1="229.8" x2="276.8" y2="181.7" stroke="#d0d7de" stroke-width="0.8" stroke-opacity="0.35"/>
<line x1="231.4" y1="229.8" x2="332.1" y2="145.3" stroke="#d0d7de" stroke-width="0.8" stroke-opacity="0.35"/>
<line x1="231.4" y1="229.8" x2="394.3" y2="122.7" stroke="#d0d7de" stroke-width="0.8" stroke-opacity="0.35"/>
<line x1="276.8" y1="181.7" x2="332.1" y2="145.3" stroke="#d0d7de" stroke-width="0.8" stroke-opacity="0.35"/>
<line x1="276.8" y1="181.7" x2="394.3" y2="122.7" stroke="#d0d7de" stroke-width="0.8" stroke-opacity="0.35"/>
<line x1="332.1" y1="145.3" x2="394.3" y2="122.7" stroke="#d0d7de" stroke-width="0.8" stroke-opacity="0.35"/>
<circle cx="460.0" cy="115.0" r="9.4" fill="#7048e8" fill-opacity="0.85"/>
<circle cx="525.7" cy="122.7" r="7.6" fill="#7048e8" fill-opacity="0.85"/>
<circle cx="587.9" cy="145.3" r="5.8" fill="#2f9e44" fill-opacity="0.85"/>
<circle cx="643.2" cy="181.7" r="7.6" fill="#2f9e44" fill-opacity="0.85"/>
<circle cx="688.6" cy="229.8" r="9.4" fill="#2f9e44" fill-opacity="0.85"/>
<circle cx="721.7" cy="287.1" r="9.4" fill="#2f9e44" fill-opacity="0.85"/>
<circle cx="740.7" cy="350.5" r="7.6" fill="#2f9e44" fill-opacity="0.85"/>
<circle cx="744.5" cy="416.6" r="7.6" fill="#2f9e44" fill-opacity="0.85"/>
<circle cx="733.0" cy="481.7" r="5.8" fill="#2f9e44" fill-opacity="0.85"/>
<circle cx="706.8" cy="542.5" r="7.6" fill="#2f9e44" fill-opacity="0.85"/>
<circle cx="667.3" cy="595.6" r="9.4" fill="#2f9e44" fill-opacity="0.85"/>
<circle cx="616.6" cy="638.1" r="9.4" fill="#2f9e44" fill-opacity="0.85"/>
<circle cx="557.5" cy="667.8" r="7.6" fill="#2f9e44" fill-opacity="0.85"/>
<circle cx="493.1" cy="683.1" r="7.6" fill="#2f9e44" fill-opacity="0.85"/>
<circle cx="426.9" cy="683.1" r="5.8" fill="#2f9e44" fill-opacity="0.85"/>
<circle cx="362.5" cy="667.8" r="7.6" fill="#2f9e44" fill-opacity="0.85"/>
<circle cx="303.4" cy="638.1" r="9.4" fill="#2f9e44" fill-opacity="0.85"/>
<circle cx="252.7" cy="595.6" r="11.2" fill="#2f9e44" fill-opacity="0.85"/>
<circle cx="213.2" cy="542.5" r="11.2" fill="#2f9e44" fill-opacity="0.85"/>
<circle cx="187.0" cy="481.7" r="7.6" fill="#2f9e44" fill-opacity="0.85"/>
<circle cx="175.5" cy="416.6" r="5.8" fill="#2f9e44" fill-opacity="0.85"/>
<circle cx="179.3" cy="350.5" r="7.6" fill="#2f9e44" fill-opacity="0.85"/>
<circle cx="198.3" cy="287.1" r="9.4" fill="#2f9e44" fill-opacity="0.85"/>
<circle cx="231.4" cy="229.8" r="11.2" fill="#2f9e44" fill-opacity="0.85"/>
<circle cx="276.8" cy="181.7" r="11.2" fill="#2f9e44" fill-opacity="0.85"/>
<circle cx="332.1" cy="145.3" r="9.4" fill="#2f9e44" fill-opacity="0.85"/>
<circle cx="394.3" cy="122.7" r="9.4" fill="#2f9e44" fill-opacity="0.85"/>
<text x="720.0" y="40.0" font-family="Arial, sans-serif" font-size="11" font-weight="400" fill="#1f2933">green=chain</text>
<text x="720.0" y="58.0" font-family="Arial, sans-serif" font-size="11" font-weight="400" fill="#1f2933">purple=cycle</text>
</svg>
